<svg width="224" height="39" viewBox="0 0 224 39" fill="none" xmlns="http://www.w3.org/2000/svg">
<g clip-path="url(#clip0_57_276)">
<path d="M1.68397 9.07547C2.79847 5.07999 6.62102 2.17886 12.1471 0.545898C5.90979 2.09317 1.55688 5.1265 0.356837 9.43535C-2.33654 19.1156 10.3922 30.8033 32.0859 37.1883C37.7928 38.8677 40.909 38.9902 41.2536 39C41.0801 38.9804 40.0047 38.7625 33.413 36.8308C12.5675 30.7225 -1.01185 18.7557 1.68397 9.07547Z" fill="#ACB407"/>
<path d="M4.37491 8.52957C5.48696 4.53409 9.3095 1.63296 14.8356 0C8.59828 1.54727 4.24781 4.5806 3.04533 8.88945C0.351948 18.5672 13.0807 30.2574 34.7744 36.6448C40.4813 38.3243 43.5975 38.4443 43.9421 38.4541C43.7686 38.432 42.6932 38.2141 36.1015 36.2825C15.256 30.1766 1.67664 18.2098 4.37491 8.52957Z" fill="white"/>
<path d="M27.3493 5.48645V15.9452H25.0836V5.48645H17.4947V27.8092V29.0823C19.7873 30.419 22.3267 31.6896 25.0836 32.8721V31.8904V22.455H27.3493V32.8868V33.8074C28.146 34.1207 28.9599 34.4219 29.7885 34.7205H32.1397H34.9381V5.48645H27.3493Z" fill="white"/>
<path d="M45.5699 22.455H50.309V16.9123H45.5699V11.3254H50.6438V5.48645H37.981V34.7205H51.1473V28.884H45.5699V22.455Z" fill="white"/>
<path d="M62.8618 10.9386C62.4243 15.3062 62.0014 20.3104 61.5957 25.9535C61.1949 20.3667 60.5301 13.546 59.6038 5.48889H51.5945L56.0086 34.723H67.5202L71.3892 5.48889H63.3799L62.8618 10.9386Z" fill="white"/>
<path d="M82.2726 5.48645V27.0356C82.2726 28.4923 82.2042 29.4177 82.0698 29.8094C81.9354 30.1987 81.6323 30.397 81.1606 30.397C80.7475 30.397 80.4738 30.2183 80.3369 29.8633C80.2025 29.5083 80.1341 28.6906 80.1341 27.4151V5.48645H72.5452V22.7953C72.5452 26.0955 72.6038 28.2622 72.7236 29.2904C72.8458 30.3187 73.2344 31.2979 73.8943 32.2258C74.5542 33.1537 75.549 33.9053 76.8785 34.4831C78.2081 35.0608 79.7455 35.3497 81.4832 35.3497C83.0547 35.3497 84.4161 35.1049 85.5746 34.6177C86.7306 34.1305 87.6618 33.4132 88.3706 32.4682C89.0794 31.5232 89.5047 30.6026 89.6489 29.7041C89.7931 28.8057 89.8639 27.251 89.8639 25.033V5.48645H82.2726Z" fill="white"/>
<path d="M94.5493 7.85632V5.48645H117.634V7.85632H107.478V34.6569H104.704V7.85632H94.5493Z" fill="white"/>
<path d="M118.817 20.0729C118.817 15.8228 119.958 12.2974 122.243 9.49172C124.743 6.41431 128.185 4.87439 132.562 4.87439C136.913 4.87439 140.339 6.41431 142.839 9.49172C145.122 12.2974 146.266 15.8252 146.266 20.0729C146.266 24.3205 145.125 27.8484 142.839 30.654C140.337 33.7314 136.913 35.2714 132.562 35.2714C128.185 35.2714 124.743 33.7339 122.243 30.654C119.958 27.8484 118.817 24.3205 118.817 20.0729ZM121.591 20.0729C121.591 23.5861 122.461 26.5141 124.201 28.8571C126.159 31.5525 128.945 32.9015 132.562 32.9015C136.15 32.9015 138.939 31.5525 140.923 28.8571C142.637 26.5141 143.492 23.5861 143.492 20.0729C143.492 16.5597 142.637 13.617 140.923 11.2495C138.939 8.58098 136.152 7.24671 132.562 7.24671C128.945 7.24671 126.159 8.58098 124.201 11.2495C122.461 13.617 121.591 16.5597 121.591 20.0729Z" fill="white"/>
<path d="M149.038 20.0729C149.038 15.8228 150.179 12.2974 152.464 9.49172C154.964 6.41431 158.406 4.87439 162.783 4.87439C167.134 4.87439 170.56 6.41431 173.06 9.49172C175.343 12.2974 176.487 15.8252 176.487 20.0729C176.487 24.3205 175.346 27.8484 173.06 30.654C170.558 33.7314 167.134 35.2714 162.783 35.2714C158.406 35.2714 154.964 33.7339 152.464 30.654C150.179 27.8484 149.038 24.3205 149.038 20.0729ZM151.812 20.0729C151.812 23.5861 152.682 26.5141 154.422 28.8571C156.38 31.5525 159.166 32.9015 162.783 32.9015C166.371 32.9015 169.16 31.5525 171.144 28.8571C172.858 26.5141 173.713 23.5861 173.713 20.0729C173.713 16.5597 172.858 13.617 171.144 11.2495C169.16 8.58098 166.373 7.24671 162.783 7.24671C159.166 7.24671 156.38 8.58098 154.422 11.2495C152.682 13.617 151.812 16.5597 151.812 20.0729Z" fill="white"/>
<path d="M180.811 34.6569V5.48645H183.585V32.287H199.899V34.6569H180.811Z" fill="white"/>
<path d="M201.243 25.0574H204.017C203.907 30.2868 207.077 32.9015 213.52 32.9015C215.368 32.9015 217.042 32.4388 218.537 31.5134C220.331 30.4239 221.228 28.9134 221.228 26.9793C221.228 24.4454 219.229 22.69 215.233 21.7083L208.749 20.1145C204.372 19.052 202.182 16.709 202.182 13.0881C202.182 11.1271 202.834 9.39868 204.139 7.90037C205.906 5.88549 208.597 4.87683 212.215 4.87683C215.26 4.87683 217.775 5.64067 219.76 7.16346C221.935 8.8258 223.008 11.0855 222.981 13.945H220.207C220.126 11.82 219.295 10.1454 217.719 8.91883C216.25 7.80244 214.429 7.24425 212.254 7.24425C210.132 7.24425 208.446 7.66779 207.197 8.50998C205.701 9.51864 204.953 11.0292 204.953 13.0441C204.953 15.2768 206.422 16.7629 209.358 17.4974L216.455 19.2552C221.485 20.5087 224 23.0695 224 26.9352C224 28.8154 223.428 30.4484 222.287 31.8365C220.437 34.1256 217.296 35.2689 212.865 35.2689C209.221 35.2689 206.381 34.4512 204.34 32.8183C202.113 31.0482 201.079 28.4604 201.243 25.0574Z" fill="white"/>
</g>
<defs>
<clipPath id="clip0_57_276">
<rect width="224" height="39" fill="white"/>
</clipPath>
</defs>
</svg>
